<svg width="482" height="115" viewBox="0 0 482 115" fill="none" xmlns="http://www.w3.org/2000/svg">
<g filter="url(#filter0_d_17_25)">
<mask id="mask0_17_25" style="mask-type:alpha" maskUnits="userSpaceOnUse" x="15" y="57" width="467" height="58">
<rect x="15" y="57" width="467" height="58" fill="#D9D9D9"/>
</mask>
<g mask="url(#mask0_17_25)">
<g filter="url(#filter1_d_17_25)">
<path d="M49.7422 93C48.1146 93 47.3008 92.1048 47.3008 90.3145V25.666C47.3008 23.8757 48.1146 22.9805 49.7422 22.9805H54.2344C55.862 22.9805 56.6758 23.8757 56.6758 25.666V54.377C56.6758 55.679 56.6432 56.9811 56.5781 58.2832H56.7734L89.3906 24.8848C90.6276 23.6152 91.7669 22.9805 92.8086 22.9805H98.7168C101.419 22.9805 101.712 24.0547 99.5957 26.2031L74.791 51.4961L100.914 89.7773C102.346 91.9258 102.053 93 100.035 93H94.0781C92.6458 93 91.5065 92.3652 90.6602 91.0957L68.3457 58.1367L56.6758 70.002V90.3145C56.6758 92.1048 55.862 93 54.2344 93H49.7422ZM114.586 93C112.958 93 112.145 92.1048 112.145 90.3145V25.666C112.145 23.8757 112.958 22.9805 114.586 22.9805H119.078C120.706 22.9805 121.52 23.8757 121.52 25.666V90.3145C121.52 92.1048 120.706 93 119.078 93H114.586ZM134.264 31.3789C132.473 31.3789 131.578 30.6465 131.578 29.1816V25.1777C131.578 23.7129 132.473 22.9805 134.264 22.9805H185.924C187.714 22.9805 188.609 23.7129 188.609 25.1777V29.1816C188.609 30.6465 187.714 31.3789 185.924 31.3789H164.781V90.3145C164.781 92.1048 163.967 93 162.34 93H157.848C156.22 93 155.406 92.1048 155.406 90.3145V31.3789H134.264ZM194.811 31.3789C193.02 31.3789 192.125 30.6465 192.125 29.1816V25.1777C192.125 23.7129 193.02 22.9805 194.811 22.9805H246.471C248.261 22.9805 249.156 23.7129 249.156 25.1777V29.1816C249.156 30.6465 248.261 31.3789 246.471 31.3789H225.328V90.3145C225.328 92.1048 224.514 93 222.887 93H218.395C216.767 93 215.953 92.1048 215.953 90.3145V31.3789H194.811ZM261.656 93C260.029 93 259.215 92.1048 259.215 90.3145V25.666C259.215 23.8757 260.029 22.9805 261.656 22.9805H304.381C306.171 22.9805 307.066 23.7129 307.066 25.1777V28.791C307.066 30.2559 306.171 30.9883 304.381 30.9883H268.59V52.668H301.451C303.242 52.668 304.137 53.4004 304.137 54.8652V58.4785C304.137 59.9434 303.242 60.6758 301.451 60.6758H268.59V84.9922H305.846C307.636 84.9922 308.531 85.7246 308.531 87.1895V90.8027C308.531 92.2676 307.636 93 305.846 93H261.656ZM323.668 93C322.04 93 321.227 92.1048 321.227 90.3145V25.666C321.227 23.8757 322.04 22.9805 323.668 22.9805H329.918C332.197 22.9805 333.824 23.7943 334.801 25.4219L365.367 76.6426H365.562C365.497 75.3405 365.465 74.0384 365.465 72.7363V25.666C365.465 23.8757 366.279 22.9805 367.906 22.9805H372.398C374.026 22.9805 374.84 23.8757 374.84 25.666V90.3145C374.84 92.1048 374.026 93 372.398 93H368.102C365.823 93 364.195 92.1862 363.219 90.5586L330.699 36.2129H330.504C330.569 37.515 330.602 38.8171 330.602 40.1191V90.3145C330.602 92.1048 329.788 93 328.16 93H323.668ZM391.246 87.7266C389.521 86.1641 389.065 84.7969 389.879 83.625L392.418 79.9629C393.297 78.6934 394.713 78.791 396.666 80.2559C399.238 82.1764 401.907 83.7552 404.674 84.9922C407.473 86.2292 410.859 86.8477 414.83 86.8477C417.76 86.8477 420.234 86.4082 422.252 85.5293C424.27 84.6504 425.882 83.3971 427.086 81.7695C428.323 80.1094 428.941 78.1074 428.941 75.7637C428.941 74.071 428.681 72.5085 428.16 71.0762C427.672 69.6113 426.874 68.3906 425.768 67.4141C424.661 66.4375 423.505 65.6725 422.301 65.1191C420.315 64.2077 417.337 63.1497 413.365 61.9453C409.426 60.7409 405.976 59.4388 403.014 58.0391C400.084 56.6393 397.74 54.9466 395.982 52.9609C394.257 50.9753 393.102 48.9408 392.516 46.8574C391.962 44.7415 391.686 42.3327 391.686 39.6309C391.686 35.4967 392.89 31.9323 395.299 28.9375C397.708 25.9427 400.654 23.957 404.137 22.9805C407.652 22.0039 411.217 21.5156 414.83 21.5156C418.964 21.5156 422.561 22.0527 425.621 23.127C428.681 24.2012 431.415 25.6009 433.824 27.3262C435.517 28.5306 435.908 29.8001 434.996 31.1348L432.506 34.6992C431.757 35.7734 430.292 35.5456 428.111 34.0156C426.451 32.8438 424.417 31.7533 422.008 30.7441C419.632 29.7025 417.271 29.1816 414.928 29.1816C411.933 29.1816 409.443 29.5397 407.457 30.2559C405.471 30.9395 403.909 32.1113 402.77 33.7715C401.63 35.4316 401.061 37.3522 401.061 39.5332C401.061 40.9004 401.191 42.1699 401.451 43.3418C401.712 44.4811 402.379 45.653 403.453 46.8574C404.527 48.0618 405.829 48.9896 407.359 49.6406C409.41 50.5195 412.584 51.5612 416.881 52.7656C421.21 53.9375 424.986 55.3861 428.209 57.1113C431.204 58.7064 433.352 60.3828 434.654 62.1406C435.989 63.8659 437.014 65.7539 437.73 67.8047C438.479 69.8229 438.854 72.1016 438.854 74.6406C438.854 79.263 437.665 83.1204 435.289 86.2129C432.913 89.3053 430.097 91.4538 426.842 92.6582C423.587 93.8626 419.501 94.4648 414.586 94.4648C408.694 94.4648 403.811 93.7812 399.938 92.4141C396.064 91.0469 393.167 89.4844 391.246 87.7266Z" fill="white"/>
</g>
</g>
<mask id="mask1_17_25" style="mask-type:alpha" maskUnits="userSpaceOnUse" x="0" y="0" width="467" height="58">
<rect width="467" height="58" fill="#D9D9D9"/>
</mask>
<g mask="url(#mask1_17_25)">
<g filter="url(#filter2_d_17_25)">
<path d="M45.7422 94C44.1146 94 43.3008 93.1048 43.3008 91.3145V26.666C43.3008 24.8757 44.1146 23.9805 45.7422 23.9805H50.2344C51.862 23.9805 52.6758 24.8757 52.6758 26.666V55.377C52.6758 56.679 52.6432 57.9811 52.5781 59.2832H52.7734L85.3906 25.8848C86.6276 24.6152 87.7669 23.9805 88.8086 23.9805H94.7168C97.4186 23.9805 97.7116 25.0547 95.5957 27.2031L70.791 52.4961L96.9141 90.7773C98.3464 92.9258 98.0534 94 96.0352 94H90.0781C88.6458 94 87.5065 93.3652 86.6602 92.0957L64.3457 59.1367L52.6758 71.002V91.3145C52.6758 93.1048 51.862 94 50.2344 94H45.7422ZM110.586 94C108.958 94 108.145 93.1048 108.145 91.3145V26.666C108.145 24.8757 108.958 23.9805 110.586 23.9805H115.078C116.706 23.9805 117.52 24.8757 117.52 26.666V91.3145C117.52 93.1048 116.706 94 115.078 94H110.586ZM130.264 32.3789C128.473 32.3789 127.578 31.6465 127.578 30.1816V26.1777C127.578 24.7129 128.473 23.9805 130.264 23.9805H181.924C183.714 23.9805 184.609 24.7129 184.609 26.1777V30.1816C184.609 31.6465 183.714 32.3789 181.924 32.3789H160.781V91.3145C160.781 93.1048 159.967 94 158.34 94H153.848C152.22 94 151.406 93.1048 151.406 91.3145V32.3789H130.264ZM190.811 32.3789C189.02 32.3789 188.125 31.6465 188.125 30.1816V26.1777C188.125 24.7129 189.02 23.9805 190.811 23.9805H242.471C244.261 23.9805 245.156 24.7129 245.156 26.1777V30.1816C245.156 31.6465 244.261 32.3789 242.471 32.3789H221.328V91.3145C221.328 93.1048 220.514 94 218.887 94H214.395C212.767 94 211.953 93.1048 211.953 91.3145V32.3789H190.811ZM257.656 94C256.029 94 255.215 93.1048 255.215 91.3145V26.666C255.215 24.8757 256.029 23.9805 257.656 23.9805H300.381C302.171 23.9805 303.066 24.7129 303.066 26.1777V29.791C303.066 31.2559 302.171 31.9883 300.381 31.9883H264.59V53.668H297.451C299.242 53.668 300.137 54.4004 300.137 55.8652V59.4785C300.137 60.9434 299.242 61.6758 297.451 61.6758H264.59V85.9922H301.846C303.636 85.9922 304.531 86.7246 304.531 88.1895V91.8027C304.531 93.2676 303.636 94 301.846 94H257.656ZM319.668 94C318.04 94 317.227 93.1048 317.227 91.3145V26.666C317.227 24.8757 318.04 23.9805 319.668 23.9805H325.918C328.197 23.9805 329.824 24.7943 330.801 26.4219L361.367 77.6426H361.562C361.497 76.3405 361.465 75.0384 361.465 73.7363V26.666C361.465 24.8757 362.279 23.9805 363.906 23.9805H368.398C370.026 23.9805 370.84 24.8757 370.84 26.666V91.3145C370.84 93.1048 370.026 94 368.398 94H364.102C361.823 94 360.195 93.1862 359.219 91.5586L326.699 37.2129H326.504C326.569 38.515 326.602 39.8171 326.602 41.1191V91.3145C326.602 93.1048 325.788 94 324.16 94H319.668ZM387.246 88.7266C385.521 87.1641 385.065 85.7969 385.879 84.625L388.418 80.9629C389.297 79.6934 390.713 79.791 392.666 81.2559C395.238 83.1764 397.907 84.7552 400.674 85.9922C403.473 87.2292 406.859 87.8477 410.83 87.8477C413.76 87.8477 416.234 87.4082 418.252 86.5293C420.27 85.6504 421.882 84.3971 423.086 82.7695C424.323 81.1094 424.941 79.1074 424.941 76.7637C424.941 75.071 424.681 73.5085 424.16 72.0762C423.672 70.6113 422.874 69.3906 421.768 68.4141C420.661 67.4375 419.505 66.6725 418.301 66.1191C416.315 65.2077 413.337 64.1497 409.365 62.9453C405.426 61.7409 401.976 60.4388 399.014 59.0391C396.084 57.6393 393.74 55.9466 391.982 53.9609C390.257 51.9753 389.102 49.9408 388.516 47.8574C387.962 45.7415 387.686 43.3327 387.686 40.6309C387.686 36.4967 388.89 32.9323 391.299 29.9375C393.708 26.9427 396.654 24.957 400.137 23.9805C403.652 23.0039 407.217 22.5156 410.83 22.5156C414.964 22.5156 418.561 23.0527 421.621 24.127C424.681 25.2012 427.415 26.6009 429.824 28.3262C431.517 29.5306 431.908 30.8001 430.996 32.1348L428.506 35.6992C427.757 36.7734 426.292 36.5456 424.111 35.0156C422.451 33.8438 420.417 32.7533 418.008 31.7441C415.632 30.7025 413.271 30.1816 410.928 30.1816C407.933 30.1816 405.443 30.5397 403.457 31.2559C401.471 31.9395 399.909 33.1113 398.77 34.7715C397.63 36.4316 397.061 38.3522 397.061 40.5332C397.061 41.9004 397.191 43.1699 397.451 44.3418C397.712 45.4811 398.379 46.653 399.453 47.8574C400.527 49.0618 401.829 49.9896 403.359 50.6406C405.41 51.5195 408.584 52.5612 412.881 53.7656C417.21 54.9375 420.986 56.3861 424.209 58.1113C427.204 59.7064 429.352 61.3828 430.654 63.1406C431.989 64.8659 433.014 66.7539 433.73 68.8047C434.479 70.8229 434.854 73.1016 434.854 75.6406C434.854 80.263 433.665 84.1204 431.289 87.2129C428.913 90.3053 426.097 92.4538 422.842 93.6582C419.587 94.8626 415.501 95.4648 410.586 95.4648C404.694 95.4648 399.811 94.7812 395.938 93.4141C392.064 92.0469 389.167 90.4844 387.246 88.7266Z" fill="white"/>
</g>
</g>
</g>
<defs>
<filter id="filter0_d_17_25" x="39.3008" y="22.5156" width="403.553" height="79.9492" filterUnits="userSpaceOnUse" color-interpolation-filters="sRGB">
<feFlood flood-opacity="0" result="BackgroundImageFix"/>
<feColorMatrix in="SourceAlpha" type="matrix" values="0 0 0 0 0 0 0 0 0 0 0 0 0 0 0 0 0 0 127 0" result="hardAlpha"/>
<feOffset dy="4"/>
<feGaussianBlur stdDeviation="2"/>
<feComposite in2="hardAlpha" operator="out"/>
<feColorMatrix type="matrix" values="0 0 0 0 0 0 0 0 0 0 0 0 0 0 0 0 0 0 0.25 0"/>
<feBlend mode="normal" in2="BackgroundImageFix" result="effect1_dropShadow_17_25"/>
<feBlend mode="normal" in="SourceGraphic" in2="effect1_dropShadow_17_25" result="shape"/>
</filter>
<filter id="filter1_d_17_25" x="42.3008" y="21.5156" width="396.553" height="74.9492" filterUnits="userSpaceOnUse" color-interpolation-filters="sRGB">
<feFlood flood-opacity="0" result="BackgroundImageFix"/>
<feColorMatrix in="SourceAlpha" type="matrix" values="0 0 0 0 0 0 0 0 0 0 0 0 0 0 0 0 0 0 127 0" result="hardAlpha"/>
<feOffset dx="-5" dy="2"/>
<feComposite in2="hardAlpha" operator="out"/>
<feColorMatrix type="matrix" values="0 0 0 0 0.247059 0 0 0 0 0.8 0 0 0 0 0.443137 0 0 0 1 0"/>
<feBlend mode="normal" in2="BackgroundImageFix" result="effect1_dropShadow_17_25"/>
<feBlend mode="normal" in="SourceGraphic" in2="effect1_dropShadow_17_25" result="shape"/>
</filter>
<filter id="filter2_d_17_25" x="38.3008" y="22.5156" width="396.553" height="74.9492" filterUnits="userSpaceOnUse" color-interpolation-filters="sRGB">
<feFlood flood-opacity="0" result="BackgroundImageFix"/>
<feColorMatrix in="SourceAlpha" type="matrix" values="0 0 0 0 0 0 0 0 0 0 0 0 0 0 0 0 0 0 127 0" result="hardAlpha"/>
<feOffset dx="-5" dy="2"/>
<feComposite in2="hardAlpha" operator="out"/>
<feColorMatrix type="matrix" values="0 0 0 0 0.247059 0 0 0 0 0.8 0 0 0 0 0.443137 0 0 0 1 0"/>
<feBlend mode="normal" in2="BackgroundImageFix" result="effect1_dropShadow_17_25"/>
<feBlend mode="normal" in="SourceGraphic" in2="effect1_dropShadow_17_25" result="shape"/>
</filter>
</defs>
</svg>
